# xmcd
#
# Track frame offsets:
#	150
#	11846
#	22706
#	35704
#	48888
#	61437
#	78934
#	100869
#	115849
#	127759
#	139654
#	154195
#	168697
#	183877
#	200029
#	219057
#	232745
#	246006
#	259103
#	269952
#
# Disc length: 3780 seconds
#
# Revision: 2
# Processed by: cddbd v1.5.2PL0 Copyright (c) Steve Scherf et al.
# Submitted via: audiograbber 1.83.01
#
DISCID=0b0ec214
DTITLE=Various Artist - 100 Hits - Classic Country [Box-Set] [CD 4)
DYEAR=2012
DGENRE=Country
TTITLE0=George Jones - She Thinks I Still Care
TTITLE1=Willie Nelson - Hello Walls
TTITLE2=Bobbie Gentry - I'll Never Fall In Love Again
TTITLE3=Dr. Hook - When You're In Love With A Beautiful Woman
TTITLE4=Jean Shepard - Think I'll Go Somewhere And Cry Myself To Sleep
TTITLE5=Barbara Mandrell - Child Support
TTITLE6=Dan Seals - Everything That Glitters (Is Not Gold)
TTITLE7=Kenny Dale - Bluest Heartache Of The Year
TTITLE8=Sonny James - Only The Lonely (Know The Way I Feel)
TTITLE9=Billy "Crash" Craddock - I Cheated On A Good Woman's Love
TTITLE10=Deana Carter - Did I Shave My Legs For This?
TTITLE11=Tanya Tucker - Just Another Love
TTITLE12=Jessi Colter - I'm Not Lisa
TTITLE13=Linda Davis - Just Enough Rope
TTITLE14=Ronnie Milsap - Stranger In My House
TTITLE15=Noah Gordon - The Blue Pages
TTITLE16=Trace Adkins - See Jane Run
TTITLE17=Wesley Tuttle - With Tears In My Eyes
TTITLE18=Ferlin Husky - Gone
TTITLE19=Merle Travis - Divorce Me C.O.D.
EXTD=
EXTT0=
EXTT1=
EXTT2=
EXTT3=
EXTT4=
EXTT5=
EXTT6=
EXTT7=
EXTT8=
EXTT9=
EXTT10=
EXTT11=
EXTT12=
EXTT13=
EXTT14=
EXTT15=
EXTT16=
EXTT17=
EXTT18=
EXTT19=
PLAYORDER=
